<?xml version="1.0" encoding="utf-8"?>
<!-- Generator: Adobe Illustrator 19.0.0, SVG Export Plug-In . SVG Version: 6.00 Build 0)  -->
<svg version="1.1" id="Layer_1" xmlns="http://www.w3.org/2000/svg" xmlns:xlink="http://www.w3.org/1999/xlink" x="0px" y="0px"
	 width="200px" height="32px" viewBox="0 0 200 32" style="enable-background:new 0 0 200 32;" xml:space="preserve">
<style type="text/css">
	.st0{fill:#8FB1CE;}
	.st1{fill:#4FB2E4;}
	.st2{fill:#002D62;}
</style>
<g id="XMLID_47_">
	<rect id="XMLID_15_" x="22.8" y="1.1" class="st0" width="7.6" height="22.8"/>
</g>
<polygon id="XMLID_14_" class="st1" points="15.2,23.9 7.6,23.9 7.6,1.1 0,1.1 0,31.5 22.8,31.5 22.8,23.9 "/>
<rect id="XMLID_13_" x="7.6" y="1.1" class="st2" width="15.2" height="22.8"/>
<g id="XMLID_43_">
	<path id="XMLID_12_" class="st2" d="M47.2,24.7c-5,0-9.1-4.1-9.1-9.1V1.1h4.6v14.5c0,2.5,2,4.6,4.6,4.6c2.5,0,4.6-2,4.6-4.6V1.1
		h4.6v14.5C56.3,20.6,52.2,24.7,47.2,24.7z"/>
</g>
<g id="XMLID_41_">
	<polygon id="XMLID_11_" class="st2" points="97.8,23.9 83.5,23.9 83.5,1.1 88.1,1.1 88.1,19.3 97.8,19.3 	"/>
</g>
<g id="XMLID_19_">
	<g id="XMLID_37_">
		<path id="XMLID_38_" class="st2" d="M108.2,7.1c4.8,0,8.8,3.8,8.8,8.6s-4,8.6-8.8,8.6s-8.8-3.8-8.8-8.6S103.4,7.1,108.2,7.1z
			 M108.2,19.9c2.4,0,4.3-1.9,4.3-4.3c0-2.4-1.9-4.3-4.3-4.3s-4.3,1.9-4.3,4.3C103.9,18,105.9,19.9,108.2,19.9z"/>
	</g>
	<g id="XMLID_34_">
		<path id="XMLID_35_" class="st2" d="M119.6,7.2h4.4V16c0,2.5,0.7,4,3,4c2.3,0,3.6-1.4,3.6-4.5V7.2h4.4v16.7h-4.4v-2.1
			c-1.2,1.6-3,2.5-4.9,2.5c-4.9,0-6.1-3.9-6.1-7.5V7.2z"/>
	</g>
	<g id="XMLID_31_">
		<path id="XMLID_32_" class="st2" d="M137.2,7.2h4.4l2.7,7.1c1,2.6,1.6,5.2,1.6,5.2s0.7-2.6,1.7-5.2l2.7-7.1h4.4l-6.6,16.7h-4.3
			L137.2,7.2z"/>
	</g>
	<g id="XMLID_27_">
		<path id="XMLID_28_" class="st2" d="M163,7.1c1.9,0,3.7,0.9,4.9,2.5V7.2h4.4v16.7h-4.4v-2.1c-1.2,1.6-3,2.5-4.9,2.5
			c-4.6,0-7.6-3.8-7.6-8.6S158.4,7.1,163,7.1z M164.1,19.9c2.3,0,3.9-1.7,3.9-4.3c0-2.5-1.6-4.3-3.9-4.3c-2.3,0-4,1.7-4,4.3
			C160.1,18.2,161.7,19.9,164.1,19.9z"/>
	</g>
	<g id="XMLID_23_">
		<path id="XMLID_24_" class="st2" d="M178.6,0.5c1.4,0,2.6,1.2,2.6,2.6c0,1.4-1.2,2.6-2.6,2.6c-1.4,0-2.6-1.2-2.6-2.6
			C176,1.7,177.2,0.5,178.6,0.5z M176.4,7.2h4.4v16.7h-4.4V7.2z"/>
	</g>
	<g id="XMLID_20_">
		<path id="XMLID_21_" class="st2" d="M184.6,7.2h4.4v2.4c1.2-1.6,3-2.5,5.1-2.5c4.7,0,5.9,3.2,5.9,7.7v9.1h-4.4v-8.6
			c0-2.5-0.3-4-2.8-4c-2.3,0-3.7,1.7-3.7,4.3v8.2h-4.4V7.2z"/>
	</g>
</g>
<g id="XMLID_17_">
	<path id="XMLID_1_" class="st2" d="M71.7,24.7c-6.7,0-12.1-5.4-12.1-12.1c0-6.7,5.4-12.1,12.1-12.1c3.2,0,6.3,1.3,8.6,3.6L77,7.2
		C75.6,5.8,73.7,5,71.7,5c-4.2,0-7.6,3.4-7.6,7.6s3.4,7.6,7.6,7.6c2,0,3.9-0.8,5.3-2.2l3.2,3.2C78,23.4,74.9,24.7,71.7,24.7z"/>
</g>
</svg>
