<?xml version="1.0" encoding="utf-8"?>
<!-- Generator: Adobe Illustrator 19.0.0, SVG Export Plug-In . SVG Version: 6.00 Build 0)  -->
<svg version="1.1" id="Layer_1" xmlns="http://www.w3.org/2000/svg" xmlns:xlink="http://www.w3.org/1999/xlink" x="0px" y="0px"
	 width="487.3px" height="74.3px" viewBox="-3 359.7 487.3 74.3" style="enable-background:new -3 359.7 487.3 74.3;"
	 xml:space="preserve">
<style type="text/css">
	.st0{fill:#9AB6D3;}
	.st1{fill:#5EB3E4;}
	.st2{fill:#FFFFFF;}
</style>
<g id="Reperes">
</g>
<g id="Logo">
	<g>
		<g>
			<g>
				<rect x="60.9" y="362.1" class="st0" width="18.2" height="54.5"/>
			</g>
			<polygon class="st1" points="42.8,416.7 24.6,416.7 24.6,362.1 6.4,362.1 6.4,434.8 60.9,434.8 60.9,416.7 			"/>
			<rect x="24.6" y="362.1" class="st2" width="36.4" height="54.5"/>
			<g>
				<path class="st2" d="M119.1,418.5c-12,0-21.8-9.8-21.8-21.8v-34.6h10.9v34.5c0,6,4.9,10.9,10.9,10.9s10.9-4.9,10.9-10.9v-34.5
					h10.9v34.5C140.9,408.7,131.2,418.5,119.1,418.5z"/>
			</g>
			<g>
				<polygon class="st2" points="240.1,416.7 206,416.7 206,362.1 216.9,362.1 216.9,405.7 240.1,405.7 				"/>
			</g>
			<g>
				<g>
					<path class="st2" d="M265,376.5c11.6,0,21,9.1,21,20.5c0,11.4-9.4,20.5-21,20.5s-21-9.1-21-20.5
						C244,385.6,253.5,376.5,265,376.5z M265,407.1c5.7,0,10.3-4.5,10.3-10.2c0-5.7-4.6-10.2-10.3-10.2s-10.3,4.6-10.3,10.2
						C254.7,402.7,259.4,407.1,265,407.1z"/>
				</g>
				<g>
					<path class="st2" d="M292.1,376.7h10.6v21c0,6.1,1.6,9.4,7.2,9.4c5.4,0,8.5-3.5,8.5-10.7v-19.7h10.5v39.9h-10.5v-5.1
						c-2.9,3.9-7.2,5.9-11.8,5.9c-11.6,0-14.5-9.3-14.5-17.9V376.7z"/>
				</g>
				<g>
					<path class="st2" d="M334.4,376.7h10.5l6.4,16.9c2.3,6.1,3.9,12.4,3.9,12.4s1.7-6.3,4-12.4l6.4-16.9H376l-15.7,39.9h-10.4
						L334.4,376.7z"/>
				</g>
				<g>
					<path class="st2" d="M396,376.5c4.6,0,8.9,2.1,11.8,6v-5.8h10.5v39.9h-10.5v-5.1c-2.9,3.9-7.2,5.9-11.8,5.9
						c-11,0-18.2-9.1-18.2-20.5C377.8,385.5,384.9,376.5,396,376.5z M398.5,407.1c5.5,0,9.3-4.2,9.3-10.2c0-6.1-3.8-10.2-9.3-10.2
						c-5.6,0-9.4,4.2-9.4,10.2C389,403,392.9,407.1,398.5,407.1z"/>
				</g>
				<g>
					<path class="st2" d="M433.3,360.8c3.5,0,6.3,2.8,6.3,6.3c0,3.4-2.8,6.2-6.3,6.2c-3.4,0-6.2-2.8-6.2-6.2
						C427,363.6,429.9,360.8,433.3,360.8z M428,376.7h10.5v39.9H428V376.7z"/>
				</g>
				<g>
					<path class="st2" d="M447.5,376.7H458v5.7c2.9-3.9,7.2-5.9,12.3-5.9c11.3,0,14,7.6,14,18.5v21.6h-10.6v-20.5
						c0-6.1-0.7-9.4-6.8-9.4c-5.4,0-8.9,4.2-8.9,10.2v19.7h-10.5V376.7z"/>
				</g>
			</g>
			<g>
				<path class="st2" d="M177.7,418.5c-16,0-29-13-29-29s13-29,29-29c7.7,0,15,3,20.5,8.5l-7.7,7.7c-3.4-3.4-7.9-5.3-12.8-5.3
					c-10,0-18.1,8.1-18.1,18.1s8.1,18.1,18.1,18.1c4.8,0,9.4-1.9,12.8-5.3l7.7,7.7C192.7,415.5,185.5,418.5,177.7,418.5z"/>
			</g>
		</g>
	</g>
</g>
</svg>
